<?xml version="1.0" standalone="no"?>
<!DOCTYPE svg PUBLIC "-//W3C//DTD SVG 20010904//EN"
 "http://www.w3.org/TR/2001/REC-SVG-20010904/DTD/svg10.dtd">
<svg version="1.0" xmlns="http://www.w3.org/2000/svg"
 width="512.000000pt" height="512.000000pt" viewBox="0 0 512.000000 512.000000"
 preserveAspectRatio="xMidYMid meet">
<metadata>
Created by potrace 1.14, written by Peter Selinger 2001-2017
</metadata>
<g transform="translate(0.000000,512.000000) scale(0.100000,-0.100000)"
fill="#000000" stroke="none">
<path d="M880 4849 c-138 -14 -245 -102 -281 -230 -9 -34 -12 -513 -12 -2059
0 -1108 3 -2038 7 -2065 8 -55 46 -136 86 -181 90 -103 225 -148 358 -119 63
13 208 68 287 108 98 50 197 70 340 70 157 0 229 -18 388 -93 144 -68 224 -93
372 -115 51 -8 252 -8 296 -1 19 3 45 8 59 10 91 14 197 53 362 130 42 20 107
43 145 52 71 17 255 23 330 11 52 -8 190 -53 219 -72 29 -19 181 -80 238 -95
134 -37 274 0 369 95 48 49 91 128 102 189 12 72 8 4088 -5 4136 -26 97 -102
178 -203 215 -46 17 -139 18 -1720 19 -920 1 -1701 -2 -1737 -5z"/>
</g>
</svg>
